<svg id="Layer_1" data-name="Layer 1" xmlns="http://www.w3.org/2000/svg" xmlns:xlink="http://www.w3.org/1999/xlink" width="400" height="400" viewBox="0 0 400 400"><defs><style>.cls-1{fill:#fff;}.cls-2{fill:url(#New_Gradient_Swatch_2);}.cls-3{fill:url(#New_Gradient_Swatch_3);}.cls-4,.cls-6{stroke:#fff;stroke-miterlimit:10;stroke-width:4.21px;}.cls-4{fill:url(#New_Gradient_Swatch_2-2);}.cls-5{fill:url(#New_Gradient_Swatch_3-2);}.cls-6{fill:none;}.cls-7{fill:url(#New_Gradient_Swatch_3-3);}</style><linearGradient id="New_Gradient_Swatch_2" x1="23.51" y1="195.3" x2="365.34" y2="195.3" gradientUnits="userSpaceOnUse"><stop offset="0" stop-color="#0078ff"/><stop offset="1" stop-color="#00b3ff"/></linearGradient><linearGradient id="New_Gradient_Swatch_3" x1="23.51" y1="152.67" x2="194.42" y2="152.67" gradientUnits="userSpaceOnUse"><stop offset="0" stop-color="#41b8ff"/><stop offset="1" stop-color="#74daff"/></linearGradient><linearGradient id="New_Gradient_Swatch_2-2" x1="112.42" y1="195.3" x2="276.42" y2="195.3" xlink:href="#New_Gradient_Swatch_2"/><linearGradient id="New_Gradient_Swatch_3-2" x1="215.13" y1="195.3" x2="348.81" y2="195.3" xlink:href="#New_Gradient_Swatch_3"/><linearGradient id="New_Gradient_Swatch_3-3" x1="187.45" y1="320.23" x2="376.49" y2="320.23" xlink:href="#New_Gradient_Swatch_3"/></defs><title>VBM_icons_01</title><path class="cls-1" d="M150.65,23.22H238.2V79.34a123.92,123.92,0,0,1,34.74,20.08l48.57-28,43.83,75.79-25.49,14.72a66.79,66.79,0,0,1,0,66.83l25.49,14.71-18.9,32.68a46.57,46.57,0,0,1,30.05,43.54v47.73H150.65V311.26a123.78,123.78,0,0,1-34.74-20.08L67.33,319.23l-43.82-75.8,48.61-28.06h0q-.78-4.83-1.2-9.78c0-.07,0-.13,0-.2-.13-1.53-.22-3.07-.29-4.62l0-.83c0-1.54-.09-3.08-.09-4.63h0c0-1.55,0-3.09.09-4.63l0-.82c.07-1.55.16-3.1.29-4.63,0-.06,0-.13,0-.19.27-3.3.68-6.57,1.2-9.79L39.66,156.5l-16.15-9.33L67.33,71.38l48.58,28.05c1.27-1.05,2.56-2.06,3.87-3.06l.09-.06q1.91-1.44,3.87-2.8l.33-.23a123.74,123.74,0,0,1,12.65-7.67l.13-.07a124.06,124.06,0,0,1,13.8-6.2V23.22m0-4.21h-4.21V76.47a127.08,127.08,0,0,0-11.54,5.35l-.1.05a129.07,129.07,0,0,0-13.13,7.95l-.1.07-.24.17c-1.38,1-2.73,1.93-4,2.89h0l0,.05c-.59.44-1.17.88-1.74,1.33L69.43,67.73l-3.64-2.1-2.11,3.64L19.86,145.06l-2.11,3.65,3.65,2.11,16.16,9.33,30,17.3c-.34,2.41-.6,4.83-.8,7.24l0,.19c-.12,1.54-.22,3.15-.29,4.79l0,.64v.21c-.06,1.81-.09,3.33-.09,4.78s0,3,.09,4.78v.21l0,.65c.07,1.64.17,3.25.29,4.78v.21c.2,2.4.46,4.82.8,7.22L21.4,239.79l-3.65,2.1,2.11,3.65,43.82,75.79L65.79,325l3.64-2.11,46.09-26.61a127.24,127.24,0,0,0,30.92,17.88v57.45H380.7V319.65a50.78,50.78,0,0,0-28.25-45.51L369,245.54l2.11-3.65-3.65-2.1-21.95-12.67a71,71,0,0,0,0-63.63l21.95-12.67,3.65-2.11L369,145.06,325.16,69.27l-2.11-3.64-3.64,2.1L273.32,94.34a127.65,127.65,0,0,0-30.91-17.87V19H150.65Z"/><path class="cls-2" d="M321.51,319.23l43.83-75.8-48.62-28.06a125.07,125.07,0,0,0,0-40.13l48.62-28.07L321.51,71.38l-48.57,28A123.92,123.92,0,0,0,238.2,79.34V23.22H150.65V79.34a123.56,123.56,0,0,0-34.74,20.09L67.33,71.38,23.51,147.17l48.61,28.07a125.07,125.07,0,0,0,0,40.13L23.51,243.43l43.82,75.8,48.58-28.05a123.78,123.78,0,0,0,34.74,20.08v56.12H238.2V311.26a123.92,123.92,0,0,0,34.74-20.08Z"/><path class="cls-3" d="M194.42,195.3V23.22H150.65V79.34a123.56,123.56,0,0,0-34.74,20.09L67.33,71.38,23.51,147.17l48.61,28.07a125.07,125.07,0,0,0,0,40.13L23.51,243.43l22.36,38.68Z"/><circle class="cls-4" cx="194.42" cy="195.3" r="82"/><circle class="cls-5" cx="281.97" cy="195.3" r="66.84"/><path class="cls-6" d="M219,273.54c-28.41,11.29-33.59,31.77-33.59,46.11v48.73"/><path class="cls-7" d="M234,273.08h95.91a46.57,46.57,0,0,1,46.57,46.57v47.73a0,0,0,0,1,0,0h-189a0,0,0,0,1,0,0V319.65A46.57,46.57,0,0,1,234,273.08Z"/></svg>