<?xml version="1.0" encoding="UTF-8"?>
<svg width="100" height="100" clip-rule="evenodd" fill-rule="evenodd" image-rendering="optimizeQuality" shape-rendering="geometricPrecision" text-rendering="geometricPrecision" version="1.1" viewBox="0 0 100 100" xmlns="http://www.w3.org/2000/svg">
 <path d="m28.827 28.307a0.91847 0.91847 0 0 0-0.91825 0.91825v44.361a0.91847 0.91847 0 0 0 0.91825 0.91825h42.345a0.91847 0.91847 0 0 0 0.91825-0.91825v-44.361a0.91847 0.91847 0 0 0-0.91825-0.91825zm0.91964 1.8351h40.506v37.362h-3.0729v0.78211h3.0729v4.3829h-40.506v-4.3829h3.0076v-0.78211h-3.0076zm16.13 5.7262a0.83489 0.83489 0 0 0-0.56818 0.22088l-6.8584 6.3013-2.4213-2.4213a0.83489 0.83489 0 0 0-1.1822 0 0.83489 0.83489 0 0 0 0 1.1808l3.5535 3.5535 8.0378-7.3849a0.83489 0.83489 0 0 0 0.05001-1.1794 0.83489 0.83489 0 0 0-0.61124-0.27089zm-12.654 1.4614c-0.30738 3.1e-5 -0.55703 0.24829-0.55706 0.55567v8.4699c3e-5 0.30738 0.24968 0.55703 0.55706 0.55706h8.4129c0.30738-3.1e-5 0.55703-0.24968 0.55706-0.55706v-3.6397c-0.37099 0.37046-0.74293 0.74109-1.1141 1.1113v1.9726h-7.2988v-7.3571h7.2988v0.49872l1.11-1.11c-0.02797-0.28474-0.26679-0.50116-0.5529-0.5015zm15.423 1.3892v1.1127h18.687v-1.1127zm-15.423 12.387a0.55665 0.55665 0 0 0-0.55706 0.55567v8.4698a0.55665 0.55665 0 0 0 0.55706 0.55706h8.4129a0.55665 0.55665 0 0 0 0.55706-0.55706v-8.4698a0.55665 0.55665 0 0 0-0.55706-0.55567zm0.55706 1.1127h7.2988v7.3557h-7.2988zm14.866 0.27645v1.1127h18.687v-1.1127zm-12.761 15.009v0.78211h3.1284v-0.78211zm6.2583 0v0.78211h3.1298v-0.78211zm6.2597 0v0.78211h3.1298v-0.78211zm6.2583 0v0.78211h3.1298v-0.78211zm6.2597 0v0.78211h3.1298v-0.78211z" clip-rule="nonzero" color="#000000" color-rendering="auto" dominant-baseline="auto" fill-rule="nonzero" image-rendering="auto" shape-rendering="auto" solid-color="#000000" stop-color="#000000" style="font-feature-settings:normal;font-variant-alternates:normal;font-variant-caps:normal;font-variant-east-asian:normal;font-variant-ligatures:normal;font-variant-numeric:normal;font-variant-position:normal;font-variation-settings:normal;inline-size:0;isolation:auto;mix-blend-mode:normal;shape-margin:0;shape-padding:0;text-decoration-color:#000000;text-decoration-line:none;text-decoration-style:solid;text-indent:0;text-orientation:mixed;text-transform:none;white-space:normal"/>
</svg>
