<?xml version="1.0" encoding="UTF-8"?>
<svg width="100" height="100" fill="none" version="1.1" viewBox="0 0 100 100" xmlns="http://www.w3.org/2000/svg">
 <path d="m31.403 81.282c-0.36111 0-0.72222-0.31445-0.72222-0.62882v-61.308c0-0.31439 0.36111-0.6288 0.72222-0.6288h37.194c0.3611 0 0.7222 0.31439 0.7222 0.6288v60.993c0 0.31437-0.3611 0.62874-0.7222 0.62874h-37.194zm36.472-1.572v-59.421h-35.389v59.421zm-30.333-45.588c-0.36111 0-0.72222-0.31445-0.72222-0.62882v-5.3448c0-0.31437 0.36111-0.62882 0.72222-0.62882h25.639c0.3611 0 0.7222 0.31445 0.7222 0.62882v5.0304c0 0.31437-0.3611 0.62874-0.7222 0.62874h-25.639zm24.556-1.572v-3.4584h-23.833v3.4584zm-24.194 11.947c-0.72222 0-1.0833-0.62882-1.0833-0.94319v-5.0304c0-0.31437 0.36111-0.62874 0.72222-0.62874h25.639c0.3611 0 0.7222 0.31437 0.7222 0.62874v5.0304c0.3611 0.31437 0 0.94319-0.7222 0.94319zm24.556-1.572v-3.4584h-23.833v3.4584zm-24.556 11.318c-0.36111 0-0.72222-0.31437-0.72222-0.62874v-5.0304c0-0.31437 0.36111-0.62874 0.72222-0.62874h25.278c0.3611 0 0.7222 0.31437 0.7222 0.62874v5.0304c0 0.31437-0.3611 0.62874-0.7222 0.62874zm24.556-1.5719v-3.4584h-23.833v3.4584zm-7.2222 18.299c-0.3612 0-0.7223-0.31437-0.7223-0.62882v-7.5455c0-0.31437 0.3611-0.62874 0.7223-0.62874h7.9444c0.3611 0 0.7222 0.31437 0.7222 0.62874v7.2311c0 0.31437-0.3611 0.62882-0.7222 0.62882h-7.9444zm7.2222-1.572v-5.9735h-6.5v5.9735zm-29.972-0.69254c-0.36112-0.31437-0.36112-0.62882 0-1.2576 0.36111-0.31445 0.72222-0.31445 1.0833 0l1.4444 0.94319c0.36111 0.31437 0.36111 0.62882 0 1.2576-0.36111 0.62882-0.72222 0.31445-1.0833 0zm4.6944 3.144c-0.36111-0.31445-0.36111-0.62882 0-1.2576 0.36111-0.31437 0.72222-0.31437 1.0833 0l1.4444 0.94319c0.36111 0.31445 0.36111 0.62882 0 1.2576-0.36111 0.62874-0.72222 0.31437-1.0833 0zm4.6944 3.1439c-0.3611-0.31437-0.3611-0.62882 0-1.2576 0.3612-0.31445 0.7223-0.31445 1.0834 0l1.4444 0.94319c0.3611 0.31437 0.3611 0.62874 0 1.2576-0.3611 0.31437-0.7222 0.31437-1.0833 0zm4.3334 3.1439c-0.3611-0.31437-0.3611-0.62874 0-1.2576 0.3611-0.31437 0.7222-0.31437 1.0833 0l1.4445 0.94319c0.3611 0.31437 0.3611 0.62882 0 1.2576-0.3612 0.31445-0.7223 0.31445-1.0834 0z" fill="#000" stroke-width=".92577"/>
</svg>
