<?xml version="1.0" encoding="UTF-8"?>
<svg width="100" height="100" clip-rule="evenodd" fill-rule="evenodd" image-rendering="optimizeQuality" shape-rendering="geometricPrecision" text-rendering="geometricPrecision" version="1.1" viewBox="0 0 100 100" xmlns="http://www.w3.org/2000/svg">
 <path d="m67.215 73.787v3.046h-1.8841v-3.046h-30.726v3.0377h-1.8841v-3.0377h-1.079c-1.0624 0-1.9339-0.2158-2.5895-0.77188-0.67228-0.57269-1.0541-1.4359-1.0873-2.714v-13.736c-0.84658-0.24069-1.5936-0.55609-2.2243-0.95448-0.86318-0.54779-1.5106-1.2533-1.909-2.1248-1.3446-2.9547-0.66398-5.4364 0.92128-7.1046 0.72208-0.76358 1.6351-1.3446 2.631-1.7181s2.075-0.53119 3.1207-0.44819c0.78848 0.083 1.5604 0.24899 2.2741 0.58929v-9.4369c0-3.8843 0.58099-5.9178 2.075-7.0465 1.4691-1.1122 3.5772-1.1537 6.7726-1.1537h16.724c3.4693 0 5.5775 0.1328 6.9718 1.3778 1.3944 1.245 1.7928 3.378 1.7928 7.3204v9.3041c0.95448-0.45649 2.0086-0.67228 3.0543-0.66398 1.0209 0 2.0252 0.2241 2.9381 0.61419 0.92128 0.39839 1.7596 0.97938 2.4069 1.7264 1.4276 1.6268 1.9422 3.959 0.55609 6.673-0.42329 0.82998-1.0541 1.5106-1.9007 2.0584-0.62248 0.40669-1.3695 0.73868-2.216 0.98768v13.661c0 1.2782-0.41499 2.1414-1.0873 2.714-0.65568 0.55609-1.5272 0.77188-2.5895 0.77188h-1.079zm-32.544-27.522c0.58099 0.66398 1.0458 1.4857 1.3529 2.5065 0.1494 0.48139 0.25729 1.0043 0.30709 1.5687 0.083 0.54779 0.083 1.1371 0 1.7679v2.5065h27.298v-2.548c-0.083-0.61418-0.083-1.1869 0-1.7181 0-0.59759 0.1577-1.1537 0.36519-1.66 0.33199-0.82998 0.78018-1.5272 1.3031-2.0916v-10.69c0-3.3697-0.26559-5.1127-1.162-5.9261-0.90468-0.80508-2.714-0.88808-5.7352-0.88808h-16.724c-2.8053 0-4.6562 0-5.6356 0.77188-0.95448 0.72208-1.328 2.3239-1.328 5.5443v10.856zm1.66 10.225v3.1539h27.29v-3.1539zm-3.1041-9.0136c-0.1079-0.083-0.2075-0.166-0.28219-0.27389-0.72208-0.66398-1.6268-1.0043-2.5646-1.0707-0.78018-0.083-1.5853 0.083-2.3156 0.33199-0.73868 0.27389-1.411 0.69718-1.9339 1.2533-1.0956 1.1537-1.5438 2.9049-0.58099 5.038 0.24069 0.52289 0.65568 0.95448 1.2201 1.3114 0.62249 0.39839 1.4193 0.69718 2.3571 0.90468 0.41499 0.0913 0.73038 0.46479 0.73038 0.91298v14.375c0 0.68888 0.166 1.1122 0.43159 1.328 0.28219 0.24069 0.75528 0.33199 1.3778 0.33199h2.797v-19.928c0.083-0.53949 0.083-1.0292 0-1.4774-0.083-0.43159-0.1245-0.82998-0.2324-1.1952-0.23239-0.75528-0.58099-1.3612-1.0126-1.8343zm32.27 7.7852c0 0.0913 0.083 0.1909 0.083 0.29049 0 0.0996 0 0.1992-0.083 0.29049v16.069h2.797c0.62249 0 1.0956-0.0913 1.3778-0.33199 0.25729-0.2158 0.40669-0.63078 0.42329-1.3031v-14.392c0-0.47309 0.34859-0.86318 0.80508-0.92958 0.91298-0.2158 1.6766-0.51459 2.2741-0.90468 0.55609-0.35689 0.97938-0.80508 1.245-1.3363 0.97938-1.909 0.65568-3.5108-0.29049-4.5981-0.45649-0.51459-1.0624-0.93788-1.743-1.2284-0.68888-0.29879-1.4525-0.45649-2.2077-0.46479-1.8177 0-3.6353 0.87148-4.4819 2.963-0.1328 0.31539-0.1992 0.68058-0.2324 1.0956v4.7807zm-29.174 16.649h27.298v-10.391h-27.29z" fill-rule="nonzero" stroke-width=".00016131"/>
 <g transform="translate(-42.465,13.897)" fill-opacity=".98963">
  <rect x="84.082" y="23.016" width="2" height="2" ry="1" stop-color="#000000"/>
  <rect x="91.465" y="20.486" width="2" height="2" ry="1" stop-color="#000000"/>
  <rect x="98.847" y="23.016" width="2" height="2" ry="1" stop-color="#000000"/>
  <g transform="translate(-.8188)">
   <rect x="87.584" y="27.869" width="2" height="2" ry="1" stop-color="#000000"/>
   <rect x="96.983" y="27.869" width="2" height="2" ry="1" stop-color="#000000"/>
  </g>
 </g>
</svg>
