<?xml version="1.0" encoding="UTF-8"?>
<svg width="100" height="100" fill="none" version="1.1" viewBox="0 0 100 100" xmlns="http://www.w3.org/2000/svg">
 <path d="m31.403 86.5c-0.36111 0-0.72222-0.3669-0.72222-0.7337v-71.533c0-0.36683 0.36111-0.73367 0.72222-0.73367h37.194c0.3611 0 0.7222 0.36683 0.7222 0.73367v71.166c0 0.3668-0.3611 0.7336-0.7222 0.7336h-37.194zm36.472-1.8342v-69.332h-35.389v69.332zm-30.333-53.191c-0.36111 0-0.72222-0.3669-0.72222-0.7337v-6.2362c0-0.3668 0.36111-0.7337 0.72222-0.7337h25.639c0.3611 0 0.7222 0.3669 0.7222 0.7337v5.8694c0 0.3668-0.3611 0.7336-0.7222 0.7336h-25.639zm24.556-1.8342v-4.0352h-23.833v4.0352zm-24.194 13.94c-0.72222 0-1.0833-0.7337-1.0833-1.1005v-5.8694c0-0.3668 0.36111-0.7336 0.72222-0.7336h25.639c0.3611 0 0.7222 0.3668 0.7222 0.7336v5.8694c0.3611 0.3668 0 1.1005-0.7222 1.1005zm24.556-1.8342v-4.0352h-23.833v4.0352zm-24.556 13.206c-0.36111 0-0.72222-0.3668-0.72222-0.7336v-5.8694c0-0.3668 0.36111-0.7336 0.72222-0.7336h25.278c0.3611 0 0.7222 0.3668 0.7222 0.7336v5.8694c0 0.3668-0.3611 0.7336-0.7222 0.7336zm24.556-1.8341v-4.0352h-23.833v4.0352zm-7.2222 16.508c-0.3612 0-0.7223-0.3668-0.7223-0.7337v-8.804c0-0.3668 0.3611-0.7336 0.7223-0.7336h7.9444c0.3611 0 0.7222 0.3668 0.7222 0.7336v8.4372c0 0.3668-0.3611 0.7337-0.7222 0.7337h-7.9444zm7.2222-1.8342v-6.9698h-6.5v6.9698zm-29.972 4.0352c-0.36112-0.3668-0.36112-0.7337 0-1.4673 0.36111-0.3669 0.72222-0.3669 1.0833 0l1.4444 1.1005c0.36111 0.3668 0.36111 0.7337 0 1.4673-0.36111 0.7337-0.72222 0.3669-1.0833 0zm4.6944 3.6684c-0.36111-0.3669-0.36111-0.7337 0-1.4674 0.36111-0.3668 0.72222-0.3668 1.0833 0l1.4444 1.1005c0.36111 0.3669 0.36111 0.7337 0 1.4674-0.36111 0.7336-0.72222 0.3668-1.0833 0zm4.6944 3.6683c-0.3611-0.3668-0.3611-0.7337 0-1.4673 0.3612-0.3669 0.7223-0.3669 1.0834 0l1.4444 1.1005c0.3611 0.3668 0.3611 0.7336 0 1.4673-0.3611 0.3668-0.7222 0.3668-1.0833 0zm4.3334 3.6683c-0.3611-0.3668-0.3611-0.7336 0-1.4673 0.3611-0.3668 0.7222-0.3668 1.0833 0l1.4445 1.1005c0.3611 0.3668 0.3611 0.7337 0 1.4673-0.3612 0.3669-0.7223 0.3669-1.0834 0z" fill="#000"/>
</svg>
