<?xml version="1.0" encoding="UTF-8"?>
<svg width="100" height="100" clip-rule="evenodd" fill-rule="evenodd" image-rendering="optimizeQuality" shape-rendering="geometricPrecision" text-rendering="geometricPrecision" version="1.1" viewBox="0 0 100 100" xmlns="http://www.w3.org/2000/svg">
 <path d="m23.061 28.246c-1.9786 0-3.5996 1.623-3.5996 3.6016v36.307c0 1.9786 1.621 3.5977 3.5996 3.5977h37.965v-1.8438h-37.965c-0.9889 0-1.7559-0.765-1.7559-1.7539v-36.307c0-0.9889 0.76696-1.7578 1.7559-1.7578h53.879c0.9889 0 1.7559 0.76891 1.7559 1.7578v7.3281h1.8438v-7.3281c0-1.9786-1.621-3.6016-3.5996-3.6016h-53.879zm19.279 37.387c-0.41552 0-0.75 0.33449-0.75 0.75s0.33448 0.75 0.75 0.75c0.41551 0 0.75-0.33449 0.75-0.75 0-0.41551-0.33449-0.75-0.75-0.75zm5.1074 0c-0.41551 0-0.75 0.33449-0.75 0.75s0.33449 0.75195 0.75 0.75195c0.41551 0 0.75-0.33644 0.75-0.75195 0-0.41551-0.33449-0.75-0.75-0.75zm5.1055 0c-0.41551 0-0.75 0.33449-0.75 0.75s0.33449 0.75195 0.75 0.75195c0.41551 0 0.75-0.33644 0.75-0.75195 0-0.41551-0.33449-0.75-0.75-0.75zm5.1074 0c-0.41551 0-0.75 0.33449-0.75 0.75s0.33449 0.75195 0.75 0.75195c0.41551 0 0.75-0.33644 0.75-0.75195 0-0.41551-0.33449-0.75-0.75-0.75z" stop-color="#000000"/>
 <g transform="translate(2.6172 5.0607)" clip-rule="nonzero" fill-rule="nonzero" shape-rendering="auto">
  <path d="m42.778 69.057c0.0059 2.0199-1.0463 3.3849-2.4801 4.5092h14.208c-1.7864-1.2259-2.4672-2.7752-2.4672-4.5092z" color="#000000" color-rendering="auto" dominant-baseline="auto" image-rendering="auto" solid-color="#000000" stop-color="#000000" style="font-feature-settings:normal;font-variant-alternates:normal;font-variant-caps:normal;font-variant-east-asian:normal;font-variant-ligatures:normal;font-variant-numeric:normal;font-variant-position:normal;font-variation-settings:normal;inline-size:0;isolation:auto;mix-blend-mode:normal;shape-margin:0;shape-padding:0;text-decoration-color:#000000;text-decoration-line:none;text-decoration-style:solid;text-indent:0;text-orientation:mixed;text-transform:none;white-space:normal"/>
  <path d="m42.777 68.334-0.72266 0.72461c0.0052 1.7682-0.85766 2.8845-2.2031 3.9395l0.44531 1.291h14.209l0.4082-1.3184c-1.623-1.1137-2.1543-2.369-2.1543-3.9141l-0.7207-0.72266z" color="#000000" color-rendering="auto" dominant-baseline="auto" image-rendering="auto" solid-color="#000000" stop-color="#000000" style="font-feature-settings:normal;font-variant-alternates:normal;font-variant-caps:normal;font-variant-east-asian:normal;font-variant-ligatures:normal;font-variant-numeric:normal;font-variant-position:normal;font-variation-settings:normal;inline-size:0;isolation:auto;mix-blend-mode:normal;shape-margin:0;shape-padding:0;text-decoration-color:#000000;text-decoration-line:none;text-decoration-style:solid;text-indent:0;text-orientation:mixed;text-transform:none;white-space:normal"/>
 </g>
 <path d="m63.744 38.565c-1.769 0-3.2196 1.4507-3.2196 3.2196v35.077c0 1.769 1.4507 3.2196 3.2196 3.2196h15.563c1.769 0 3.2196-1.4507 3.2196-3.2196v-35.077c0-1.769-1.4507-3.2196-3.2196-3.2196zm0 1.6999h1.1195v0.34792c0 0.66655 0.53584 1.2024 1.2024 1.2024h10.917c0.66655 0 1.2042-0.53584 1.2042-1.2024v-0.34792h1.1195c0.85574 0 1.5179 0.66393 1.5179 1.5197v35.077c0 0.85574-0.66212 1.5179-1.5179 1.5179h-15.563c-0.85574 0-1.5179-0.66212-1.5179-1.5179v-35.077c0-0.85574 0.66212-1.5197 1.5179-1.5197zm3.2647 36.606a0.32304 0.32304 0 0 0-0.32268 0.32448 0.32304 0.32304 0 0 0 0.32268 0.32268h8.4006a0.32304 0.32304 0 0 0 0.32268-0.32268 0.32304 0.32304 0 0 0-0.32268-0.32448z" clip-rule="nonzero" color="#000000" color-rendering="auto" dominant-baseline="auto" fill-rule="nonzero" image-rendering="auto" shape-rendering="auto" solid-color="#000000" stop-color="#000000" style="font-feature-settings:normal;font-variant-alternates:normal;font-variant-caps:normal;font-variant-east-asian:normal;font-variant-ligatures:normal;font-variant-numeric:normal;font-variant-position:normal;font-variation-settings:normal;inline-size:0;isolation:auto;mix-blend-mode:normal;shape-margin:0;shape-padding:0;text-decoration-color:#000000;text-decoration-line:none;text-decoration-style:solid;text-indent:0;text-orientation:mixed;text-transform:none;white-space:normal"/>
</svg>
