<?xml version="1.0" encoding="UTF-8"?>
<svg width="100" height="100" fill="none" version="1.1" viewBox="0 0 100 100" xmlns="http://www.w3.org/2000/svg">
 <path d="m83.829 24.206v-0.26637c0-0.08879 0-0.08879-0.08879-0.17758v-0.08879l-0.08879-0.08879c0-0.08879-0.08879-0.08879-0.08879-0.17758l-0.08879-0.08879h-0.17758s-0.08879 0-0.08879-0.08879h-0.26637c-0.08879 0-0.17758 0-0.26637 0.08879h-0.08879l-65.883 29.39c-0.35516 0.17758-0.53274 0.53274-0.53274 0.88791 0 0.35516 0.35516 0.71032 0.71032 0.79912l18.113 3.5516 6.6593 18.38c0 0.08879 0.08879 0.08879 0.08879 0.17758 0.08879 0.08879 0.08879 0.17758 0.17758 0.17758h0.08879c0.08879 0.08879 0.17758 0.08879 0.26637 0.08879h0.17758c0.08879 0 0.26637 0 0.35516-0.08879 0 0 0.08879 0 0.08879-0.08879 0.08879 0 0.17758-0.08879 0.17758-0.17758h0.08879l9.6782-11.987 16.604 6.5705c0.26637 0.08879 0.53274 0.08879 0.71032 0s0.35516-0.35516 0.44395-0.53274l13.23-46.082zm-63.84 29.035 54.873-24.506-39.334 27.525zm54.695-22.286-29.834 29.301c-0.08879 0.08879-0.17758 0.17758-0.17758 0.35516 0 0.08879 0 0.08879-0.08879 0.17758l-2.3086 11.987-5.505-15.183zm-30.633 41.82 2.0422-10.655 4.9723 1.8646zm25.128-3.7292-22.109-8.4351 34.096-33.474z" fill="#000"/>
</svg>
