<svg id="Layer_1" data-name="Layer 1" xmlns="http://www.w3.org/2000/svg" xmlns:xlink="http://www.w3.org/1999/xlink" width="400" height="400" viewBox="0 0 400 400"><defs><style>.cls-1{fill:#fff;}.cls-2{fill:url(#New_Gradient_Swatch_2);}.cls-3{fill:url(#New_Gradient_Swatch_3);}.cls-4,.cls-6{fill:none;}.cls-10,.cls-11,.cls-4,.cls-6,.cls-9{stroke:#fff;stroke-miterlimit:10;}.cls-4{stroke-width:4.21px;}.cls-5{fill:url(#New_Gradient_Swatch_3-2);}.cls-10,.cls-11,.cls-6,.cls-9{stroke-width:4.21px;}.cls-7{fill:url(#New_Gradient_Swatch_3-3);}.cls-8{fill:#74daff;}.cls-9{fill:url(#New_Gradient_Swatch_3-4);}.cls-10{fill:url(#New_Gradient_Swatch_3-5);}.cls-11{fill:#69b8ff;}</style><linearGradient id="New_Gradient_Swatch_2" x1="39.28" y1="201.55" x2="360.72" y2="201.55" gradientUnits="userSpaceOnUse"><stop offset="0" stop-color="#0078ff"/><stop offset="1" stop-color="#00b3ff"/></linearGradient><linearGradient id="New_Gradient_Swatch_3" x1="39.28" y1="347.31" x2="360.72" y2="347.31" gradientUnits="userSpaceOnUse"><stop offset="0" stop-color="#41b8ff"/><stop offset="1" stop-color="#74daff"/></linearGradient><linearGradient id="New_Gradient_Swatch_3-2" x1="86.62" y1="129.61" x2="158.73" y2="129.61" xlink:href="#New_Gradient_Swatch_3"/><linearGradient id="New_Gradient_Swatch_3-3" x1="86.62" y1="243.61" x2="158.73" y2="243.61" xlink:href="#New_Gradient_Swatch_3"/><linearGradient id="New_Gradient_Swatch_3-4" x1="192.84" y1="275.83" x2="297.08" y2="275.83" xlink:href="#New_Gradient_Swatch_3"/><linearGradient id="New_Gradient_Swatch_3-5" x1="192.84" y1="260.15" x2="297.08" y2="260.15" xlink:href="#New_Gradient_Swatch_3"/></defs><title>VBM_icons_01</title><path class="cls-1" d="M360.72,41V362.1H39.28V41H360.72m4.21-4.21H35.07V366.31H364.93V36.79Z"/><rect class="cls-2" x="39.28" y="41" width="321.44" height="321.1"/><rect class="cls-3" x="39.28" y="332.51" width="321.44" height="29.59"/><line class="cls-4" x1="37.19" y1="332.51" x2="362.81" y2="332.51"/><rect class="cls-5" x="86.62" y="93.56" width="72.11" height="72.11"/><polyline class="cls-6" points="86.62 165.66 86.62 93.56 158.73 93.56"/><rect class="cls-7" x="86.62" y="207.56" width="72.11" height="72.11"/><polyline class="cls-6" points="86.62 279.66 86.62 207.56 158.73 207.56"/><polyline class="cls-6" points="102.45 121 127.94 146.49 178.93 95.51"/><rect class="cls-8" x="192.84" y="114.76" width="129.34" height="18.47"/><rect class="cls-8" x="192.84" y="228.31" width="129.34" height="18.47"/><line class="cls-9" x1="192.84" y1="275.83" x2="297.08" y2="275.83"/><line class="cls-10" x1="192.84" y1="260.15" x2="297.08" y2="260.15"/><line class="cls-11" x1="192.84" y1="164.01" x2="297.08" y2="164.01"/><line class="cls-11" x1="192.84" y1="148.34" x2="297.08" y2="148.34"/></svg>