<?xml version="1.0" encoding="UTF-8"?>
<svg width="100" height="100" fill="none" version="1.1" viewBox="0 0 100 100" xmlns="http://www.w3.org/2000/svg">
 <g fill="#000">
  <path d="m75.8 57.55c-0.6 0-1 0.4-1 1v15.4h-49.6v-45.2h43.4c0.6 0 1-0.4 1-1s-0.4-1-1-1h-44.4c-0.6 0-1 0.4-1 1v47.2c0 0.6 0.4 1 1 1h51.6c0.6 0 1-0.4 1-1v-16.4c0-0.5-0.5-1-1-1z"/>
  <path d="m53.1 35.25c0-0.6-0.4-1-1-1h-20.7c-0.6 0-1 0.4-1 1s0.4 1 1 1h20.7c0.6 0 1-0.5 1-1z"/>
  <path d="m31.4 44.35h9.9c0.6 0 1-0.4 1-1s-0.4-1-1-1h-9.9c-0.6 0-1 0.4-1 1s0.5 1 1 1z"/>
  <path d="m50.4 51.55c0-0.6-0.4-1-1-1h-18c-0.6 0-1 0.4-1 1s0.4 1 1 1h18c0.5 0 1-0.5 1-1z"/>
  <path d="m31.4 60.65h7.4c0.6 0 1-0.4 1-1s-0.4-1-1-1h-7.4c-0.6 0-1 0.4-1 1s0.5 1 1 1z"/>
  <path d="m31.4 68.85h11.2c0.6 0 1-0.4 1-1s-0.4-1-1-1h-11.2c-0.6 0-1 0.4-1 1s0.5 1 1 1z"/>
  <path d="m91.029 25.65c-1.1-1-2.4-1.6-3.9-1.6-1.9 0-3.7999 0.9-5.5 2.6l-30 30c-0.1 0.1-0.1 0.1-0.1 0.2l-0.1 0.1-3.3 10.5c-0.1 0.4 0 0.8 0.3 1 0.2 0.2 0.4 0.3 0.7 0.3 0.1 0 0.2 0 0.3-0.1l10.3-3.5 0.1-0.1c0.1 0 0.2-0.1 0.2-0.1l30-30c3.6-3.5 3.1-7.2 1-9.3zm-8.6999 3.2 5.5999 5.6-28.6 28.5-5.6-5.6zm-29.5 30.4 4.7 4.7-6.9 2.3zm36.4-26.3-5.5-5.5c2.1-1.7 4.2999-1.8 5.7999-0.3 1.6 1.4 1.4001 3.7-0.2999 5.8z"/>
 </g>
</svg>
