<svg id="Layer_1" data-name="Layer 1" xmlns="http://www.w3.org/2000/svg" xmlns:xlink="http://www.w3.org/1999/xlink" width="400" height="400" viewBox="0 0 400 400"><defs><style>.cls-1{fill:#007aff;}.cls-2{fill:#fff;}.cls-3{fill:url(#New_Gradient_Swatch_2);}.cls-4{fill:url(#New_Gradient_Swatch_2-2);}.cls-5{fill:url(#New_Gradient_Swatch_3);}.cls-10,.cls-6{fill:none;stroke:#fff;stroke-miterlimit:10;}.cls-6{stroke-width:4.21px;}.cls-7{fill:url(#New_Gradient_Swatch_2-3);}.cls-8{fill:url(#New_Gradient_Swatch_2-4);}.cls-9{fill:url(#New_Gradient_Swatch_3-2);}.cls-10{stroke-linecap:round;stroke-width:4.21px;}</style><linearGradient id="New_Gradient_Swatch_2" x1="136.57" y1="304.46" x2="229.45" y2="304.46" gradientUnits="userSpaceOnUse"><stop offset="0" stop-color="#0078ff"/><stop offset="1" stop-color="#00b3ff"/></linearGradient><linearGradient id="New_Gradient_Swatch_2-2" x1="8.02" y1="165.13" x2="354.99" y2="165.13" xlink:href="#New_Gradient_Swatch_2"/><linearGradient id="New_Gradient_Swatch_3" x1="46.14" y1="165.2" x2="321.87" y2="165.2" gradientUnits="userSpaceOnUse"><stop offset="0" stop-color="#41b8ff"/><stop offset="1" stop-color="#74daff"/></linearGradient><linearGradient id="New_Gradient_Swatch_2-3" x1="76.48" y1="330.46" x2="289.53" y2="330.46" xlink:href="#New_Gradient_Swatch_2"/><linearGradient id="New_Gradient_Swatch_2-4" x1="253.07" y1="251.99" x2="394.09" y2="251.99" xlink:href="#New_Gradient_Swatch_2"/><linearGradient id="New_Gradient_Swatch_3-2" x1="255.17" y1="348.27" x2="391.98" y2="348.27" xlink:href="#New_Gradient_Swatch_3"/></defs><title>VBM_icons_01</title><path class="cls-1" d="M74.37,343.06V317.85H291.64v25.21Zm60.09-26V291.85h97.09v25.21ZM5.91,291.36V38.89H357.1V291.36Z"/><path class="cls-2" d="M355,41V289.26H8V41H355M229.45,294v21H136.57V294h92.88m60.08,26v21h-213V320h213M359.2,36.79H3.81V293.47H132.36v22.28H72.27v29.42H293.74V315.75H233.66V293.47H359.2V36.79Z"/><rect class="cls-3" x="136.57" y="293.96" width="92.88" height="21"/><rect class="cls-4" x="8.02" y="41" width="346.98" height="248.26"/><rect class="cls-5" x="46.14" y="68.41" width="275.73" height="193.57"/><polyline class="cls-6" points="321.87 68.41 46.14 68.41 46.14 261.98"/><rect class="cls-7" x="76.48" y="319.96" width="213.06" height="21"/><rect class="cls-8" x="253.07" y="125.3" width="141.02" height="253.4" rx="15.94"/><path class="cls-2" d="M378.15,127.4A13.83,13.83,0,0,1,392,141.23V362.75a13.84,13.84,0,0,1-13.83,13.84H269a13.84,13.84,0,0,1-13.84-13.84V141.23A13.84,13.84,0,0,1,269,127.4H378.15m0-4.21H269a18.07,18.07,0,0,0-18,18V362.75a18.07,18.07,0,0,0,18,18.05H378.15a18.07,18.07,0,0,0,18-18.05V141.23a18.06,18.06,0,0,0-18-18Z"/><path class="cls-8" d="M269,378.69a16,16,0,0,1-15.94-15.94V141.23A16,16,0,0,1,269,125.3h21.67v2.1a7.91,7.91,0,0,0,7.9,7.9h50a7.91,7.91,0,0,0,7.89-7.9v-2.1h21.68a16,16,0,0,1,15.94,15.93V362.75a16,16,0,0,1-15.94,15.94Z"/><path class="cls-2" d="M378.15,127.4A13.83,13.83,0,0,1,392,141.23V362.75a13.84,13.84,0,0,1-13.83,13.84H269a13.84,13.84,0,0,1-13.84-13.84V141.23A13.84,13.84,0,0,1,269,127.4h19.57a10,10,0,0,0,10,10h50a10,10,0,0,0,10-10h19.57m0-4.21H354.37v4.21a5.8,5.8,0,0,1-5.79,5.79h-50a5.79,5.79,0,0,1-5.79-5.79v-4.21H269a18.07,18.07,0,0,0-18,18V362.75a18.07,18.07,0,0,0,18,18.05H378.15a18.07,18.07,0,0,0,18-18.05V141.23a18.06,18.06,0,0,0-18-18Z"/><path class="cls-9" d="M255.17,320v42.79A13.84,13.84,0,0,0,269,376.59H378.15A13.84,13.84,0,0,0,392,362.75V320Z"/><line class="cls-10" x1="293.77" y1="365.84" x2="353.38" y2="365.84"/></svg>