<svg id="Layer_1" data-name="Layer 1" xmlns="http://www.w3.org/2000/svg" xmlns:xlink="http://www.w3.org/1999/xlink" width="400" height="400" viewBox="0 0 400 400"><defs><style>.cls-1{fill:#fff;}.cls-2{fill:url(#New_Gradient_Swatch_2);}.cls-3{fill:#74daff;}.cls-4{fill:url(#New_Gradient_Swatch_2-2);}.cls-5{fill:url(#New_Gradient_Swatch_2-3);}.cls-6{fill:url(#New_Gradient_Swatch_2-4);}.cls-7{fill:none;stroke:#fff;stroke-miterlimit:10;stroke-width:4.54px;}.cls-8{fill:url(#New_Gradient_Swatch_3);}.cls-9{fill:url(#New_Gradient_Swatch_3-2);}</style><linearGradient id="New_Gradient_Swatch_2" x1="71.9" y1="133.84" x2="328.1" y2="133.84" gradientUnits="userSpaceOnUse"><stop offset="0" stop-color="#0078ff"/><stop offset="1" stop-color="#00b3ff"/></linearGradient><linearGradient id="New_Gradient_Swatch_2-2" x1="69.79" y1="289.71" x2="330.21" y2="289.71" xlink:href="#New_Gradient_Swatch_2"/><linearGradient id="New_Gradient_Swatch_2-3" x1="71.9" y1="366.03" x2="117.34" y2="366.03" xlink:href="#New_Gradient_Swatch_2"/><linearGradient id="New_Gradient_Swatch_2-4" x1="282.66" y1="366.03" x2="328.1" y2="366.03" xlink:href="#New_Gradient_Swatch_2"/><linearGradient id="New_Gradient_Swatch_3" x1="303.7" y1="253.57" x2="392.47" y2="253.57" gradientUnits="userSpaceOnUse"><stop offset="0" stop-color="#41b8ff"/><stop offset="1" stop-color="#74daff"/></linearGradient><linearGradient id="New_Gradient_Swatch_3-2" x1="7.53" y1="253.57" x2="96.3" y2="253.57" xlink:href="#New_Gradient_Swatch_3"/></defs><title>VBM_icons_01</title><path class="cls-1" d="M117.34,357.11V375H71.9V357.11h45.44m4.21-4.21H67.69v26.27h53.86V352.9Z"/><path class="cls-1" d="M328.1,357.11V375H282.66V357.11H328.1m4.21-4.21H278.45v26.27h53.86V352.9Z"/><path class="cls-1" d="M302.49,41A25.61,25.61,0,0,1,328.1,66.61v92.81A42.28,42.28,0,1,1,364,235.86V352.75H305.8V226.68H94.2V352.75H36V235.86A42.28,42.28,0,1,1,71.9,159.42V66.61A25.61,25.61,0,0,1,97.51,41h205m0-4.21h-205A29.85,29.85,0,0,0,67.69,66.61V153A46.49,46.49,0,0,0,31.81,238.6V357h66.6V230.89H301.59V357h66.6V238.6A46.49,46.49,0,0,0,332.31,153V66.61a29.85,29.85,0,0,0-29.82-29.82Z"/><path class="cls-2" d="M97.51,41h205A25.61,25.61,0,0,1,328.1,66.61V226.68a0,0,0,0,1,0,0H71.9a0,0,0,0,1,0,0V66.61A25.61,25.61,0,0,1,97.51,41Z"/><circle class="cls-3" cx="158.27" cy="94.29" r="12.09"/><circle class="cls-3" cx="241.73" cy="94.29" r="12.09"/><circle class="cls-3" cx="158.27" cy="169.4" r="12.09"/><circle class="cls-3" cx="241.73" cy="169.4" r="12.09"/><rect class="cls-4" x="69.79" y="224.58" width="260.42" height="130.27"/><path class="cls-1" d="M328.1,226.68V352.75H71.9V226.68H328.1m4.21-4.21H67.69V357H332.31V222.47Z"/><rect class="cls-5" x="71.9" y="357.11" width="45.44" height="17.85"/><rect class="cls-6" x="282.66" y="357.11" width="45.44" height="17.85"/><line class="cls-7" x1="94.2" y1="269.71" x2="305.8" y2="269.71"/><path class="cls-8" d="M303.7,354.85V196.68a44.39,44.39,0,1,1,62.38,40.58V354.85Z"/><path class="cls-1" d="M348.08,154.4A42.28,42.28,0,0,1,364,235.86V352.75H305.8V196.68a42.28,42.28,0,0,1,42.28-42.28m0-4.21a46.55,46.55,0,0,0-46.49,46.49V357h66.6V238.6a46.49,46.49,0,0,0-20.11-88.41Z"/><path class="cls-9" d="M33.92,354.85V237.26A44.39,44.39,0,1,1,96.3,196.68V354.85Z"/><path class="cls-1" d="M51.92,154.4A42.28,42.28,0,0,1,94.2,196.68V352.75H36V235.86a42.28,42.28,0,0,1,15.9-81.46m0-4.21A46.49,46.49,0,0,0,31.81,238.6V357h66.6V196.68a46.55,46.55,0,0,0-46.49-46.49Z"/></svg>